# xmcd
#
# Track frame offsets: 
#        150
#        16240
#        41112
#        66262
#        89455
#        108585
#        132030
#        154160
#        183047
#        209090
#        250150
#        275832
#        297232
#
# Disc length: 4306 seconds
#
# Revision: 3
# Processed by: cddbd v1.5.2PL0 Copyright (c) Steve Scherf et al.
# Submitted via: ExactAudioCopyFreeDBPlugin 1.0
#
DISCID=c210d00d
DTITLE=The Isley Brothers - The Isley Brothers Story [Rhino Records]
DYEAR=1991
DGENRE=Rhythm and Blues
TTITLE0=Harvest for the World
TTITLE1=Who Loves You Better
TTITLE2=The Pride - Pts. 1 and 2
TTITLE3=Footsteps in the Dark - Pts. 1 and 2
TTITLE4=Livin' in the Life
TTITLE5=Take Me to the Next Phase - Pts. 1 and 2
TTITLE6=Groove with You
TTITLE7=I Wanna Be with You
TTITLE8=Don't Say Goodnight (It's Time for Love)- Pts. 1 and 2
TTITLE9=Inside You
TTITLE10=Between the Sheets
TTITLE11=Choosey Lover
TTITLE12=Caravan of Love (Isley Jasper Isley)
EXTD=
EXTT0=
EXTT1=
EXTT2=
EXTT3=
EXTT4=
EXTT5=
EXTT6=
EXTT7=
EXTT8=
EXTT9=
EXTT10=
EXTT11=
EXTT12=
PLAYORDER=
